<?xml version="1.0" encoding="UTF-8"?><svg id="b" xmlns="http://www.w3.org/2000/svg" width="455.54" height="446.19" viewBox="0 0 455.54 446.19"><g id="c"><path d="M297.76,100.7c-49.5,79.21-140.76-53.11-231.3,91.66-28.43,53.26-15.75,123.79,29.78,165.67,98.36,98.07,273.3-16.84,222.52-149.24-3.68-19.8,15.96-36.36,28.92-49.44,120.91,166.74-124.38,388.36-287.14,235.59C-107.14,234.84,106.82-33.37,297.76,100.7Z" style="fill:#000; stroke-width:0px;"/><path d="M351.45,52.07c.55,10.02,1.1,20.04,1.86,33.9,31.08-20.15-12.53-48.02,19.76-54.41,1.52,9.79,2.86,18.38,4.27,27.49,12.3-10.93,12.06-19.98-1.52-36.49,10.3-7.43,12.39-10.2,22.47-22.56,1.22,14.83,2.07,25.11,3.18,38.5,11.18-11.7,19.84-19.89,36.3-18.6-.45,19.19-9.5,24.68-24.87,38.2h39.28c1.12,1.58,2.24,3.16,3.35,4.74-7.28,7.7-14.56,15.39-18.48,19.54-18.94-1.84-33.75-3.28-48.57-4.71-.38,2.72-.75,5.43-1.13,8.15,11.07,2.15,22.15,4.3,34.38,6.67-21.71,50.75-59.44,9.78-86.79,40.91-36.48,36.98-73.96,72.98-110.42,109.97-14.32,14.3-18.48,48.75-45.58,40.57-14.27-4.14-19.02-15.44-15.84-29.13,3.68-24.47,31.54-11.4,45.56-22.81,39.42-38.64,77.55-78.6,117.36-116.81,16.35-19.83,5.93-43.2,17.46-64.86,2.65.58,5.3,1.16,7.95,1.74Z" style="fill:#000; stroke-width:0px;"/><path d="M293.76,206.23c44.11,117.5-91.08,215.8-180.64,133.51-90.95-94.97,4.62-215.49,127.37-180.89-17.59,17.94-28.68,38.34-59.3,39.47-32.2,1.19-53.61,31.51-51.71,61.66,1.8,28.46,27.51,54.33,55.98,56.32,62.53.16,65.89-72.14,108.3-110.07Z" style="fill:#000; stroke-width:0px;"/></g></svg>